<mxfile host="app.diagrams.net" modified="2021-08-19T01:10:19.355Z" agent="5.0 (Windows NT 10.0; Win64; x64) AppleWebKit/537.36 (KHTML, like Gecko) Chrome/92.0.4515.131 Safari/537.36" etag="Nd36ONdVrxZUhGQ9OpQz" version="14.8.1" type="github">
  <diagram id="EouzW_DZAaTZ8hPtXk6k" name="Page-1">
    <mxGraphModel dx="1422" dy="706" grid="1" gridSize="10" guides="1" tooltips="1" connect="1" arrows="1" fold="1" page="1" pageScale="1" pageWidth="827" pageHeight="1169" math="0" shadow="0">
      <root>
        <mxCell id="0" />
        <mxCell id="1" parent="0" />
        <mxCell id="yg-rSWofjeU7CixwsQnB-26" value="" style="rounded=0;whiteSpace=wrap;html=1;dashed=1;" vertex="1" parent="1">
          <mxGeometry x="70" y="270" width="490" height="130" as="geometry" />
        </mxCell>
        <mxCell id="yg-rSWofjeU7CixwsQnB-20" value="" style="ellipse;shape=cloud;whiteSpace=wrap;html=1;" vertex="1" parent="1">
          <mxGeometry x="170" y="40" width="585" height="210" as="geometry" />
        </mxCell>
        <mxCell id="yg-rSWofjeU7CixwsQnB-15" value="" style="rounded=0;whiteSpace=wrap;html=1;dashed=1;" vertex="1" parent="1">
          <mxGeometry x="200" y="420" width="510" height="150" as="geometry" />
        </mxCell>
        <mxCell id="yg-rSWofjeU7CixwsQnB-16" style="edgeStyle=orthogonalEdgeStyle;rounded=0;orthogonalLoop=1;jettySize=auto;html=1;" edge="1" parent="1" source="yg-rSWofjeU7CixwsQnB-5" target="yg-rSWofjeU7CixwsQnB-7">
          <mxGeometry relative="1" as="geometry" />
        </mxCell>
        <mxCell id="yg-rSWofjeU7CixwsQnB-5" value="Nginx" style="shape=image;html=1;verticalAlign=top;verticalLabelPosition=bottom;labelBackgroundColor=#ffffff;imageAspect=0;aspect=fixed;image=https://cdn4.iconfinder.com/data/icons/logos-brands-5/24/nginx-128.png" vertex="1" parent="1">
          <mxGeometry x="90" y="310" width="50" height="50" as="geometry" />
        </mxCell>
        <mxCell id="yg-rSWofjeU7CixwsQnB-17" style="edgeStyle=orthogonalEdgeStyle;rounded=0;orthogonalLoop=1;jettySize=auto;html=1;entryX=0;entryY=0.5;entryDx=0;entryDy=0;" edge="1" parent="1" source="yg-rSWofjeU7CixwsQnB-7" target="yg-rSWofjeU7CixwsQnB-8">
          <mxGeometry relative="1" as="geometry" />
        </mxCell>
        <mxCell id="yg-rSWofjeU7CixwsQnB-7" value="Hunting-Portal Frontend" style="rounded=0;whiteSpace=wrap;html=1;fillColor=#dae8fc;strokeColor=#6c8ebf;" vertex="1" parent="1">
          <mxGeometry x="210" y="305" width="120" height="60" as="geometry" />
        </mxCell>
        <mxCell id="yg-rSWofjeU7CixwsQnB-18" style="edgeStyle=orthogonalEdgeStyle;rounded=0;orthogonalLoop=1;jettySize=auto;html=1;entryX=0.5;entryY=1;entryDx=0;entryDy=0;" edge="1" parent="1" source="yg-rSWofjeU7CixwsQnB-8" target="yg-rSWofjeU7CixwsQnB-12">
          <mxGeometry relative="1" as="geometry">
            <Array as="points">
              <mxPoint x="470" y="220" />
              <mxPoint x="500" y="220" />
            </Array>
          </mxGeometry>
        </mxCell>
        <mxCell id="yg-rSWofjeU7CixwsQnB-19" style="edgeStyle=orthogonalEdgeStyle;rounded=0;orthogonalLoop=1;jettySize=auto;html=1;" edge="1" parent="1" source="yg-rSWofjeU7CixwsQnB-8" target="yg-rSWofjeU7CixwsQnB-15">
          <mxGeometry relative="1" as="geometry" />
        </mxCell>
        <mxCell id="yg-rSWofjeU7CixwsQnB-23" style="edgeStyle=orthogonalEdgeStyle;rounded=0;orthogonalLoop=1;jettySize=auto;html=1;entryX=0.07;entryY=0.4;entryDx=0;entryDy=0;entryPerimeter=0;" edge="1" parent="1" source="yg-rSWofjeU7CixwsQnB-8" target="yg-rSWofjeU7CixwsQnB-14">
          <mxGeometry relative="1" as="geometry" />
        </mxCell>
        <mxCell id="yg-rSWofjeU7CixwsQnB-31" style="edgeStyle=orthogonalEdgeStyle;rounded=0;orthogonalLoop=1;jettySize=auto;html=1;exitX=0.25;exitY=0;exitDx=0;exitDy=0;entryX=0.5;entryY=1;entryDx=0;entryDy=0;" edge="1" parent="1" source="yg-rSWofjeU7CixwsQnB-8" target="yg-rSWofjeU7CixwsQnB-30">
          <mxGeometry relative="1" as="geometry" />
        </mxCell>
        <mxCell id="yg-rSWofjeU7CixwsQnB-8" value="Hunting-Portal Backend" style="rounded=0;whiteSpace=wrap;html=1;fillColor=#dae8fc;strokeColor=#6c8ebf;" vertex="1" parent="1">
          <mxGeometry x="410" y="305" width="120" height="60" as="geometry" />
        </mxCell>
        <mxCell id="yg-rSWofjeU7CixwsQnB-9" value="Neo4j" style="rounded=0;whiteSpace=wrap;html=1;" vertex="1" parent="1">
          <mxGeometry x="230" y="460" width="120" height="60" as="geometry" />
        </mxCell>
        <mxCell id="yg-rSWofjeU7CixwsQnB-10" value="Splunk" style="rounded=0;whiteSpace=wrap;html=1;" vertex="1" parent="1">
          <mxGeometry x="390" y="460" width="120" height="60" as="geometry" />
        </mxCell>
        <mxCell id="yg-rSWofjeU7CixwsQnB-11" value="ATT&amp;amp;CK Navigator" style="rounded=0;whiteSpace=wrap;html=1;" vertex="1" parent="1">
          <mxGeometry x="550" y="460" width="120" height="60" as="geometry" />
        </mxCell>
        <mxCell id="yg-rSWofjeU7CixwsQnB-22" style="edgeStyle=orthogonalEdgeStyle;rounded=0;orthogonalLoop=1;jettySize=auto;html=1;" edge="1" parent="1" source="yg-rSWofjeU7CixwsQnB-12" target="yg-rSWofjeU7CixwsQnB-21">
          <mxGeometry relative="1" as="geometry" />
        </mxCell>
        <mxCell id="yg-rSWofjeU7CixwsQnB-12" value="CloudHound Client" style="rounded=0;whiteSpace=wrap;html=1;fillColor=#dae8fc;strokeColor=#6c8ebf;" vertex="1" parent="1">
          <mxGeometry x="440" y="115" width="120" height="60" as="geometry" />
        </mxCell>
        <mxCell id="yg-rSWofjeU7CixwsQnB-14" value="其他API" style="ellipse;shape=cloud;whiteSpace=wrap;html=1;" vertex="1" parent="1">
          <mxGeometry x="650" y="250" width="230" height="150" as="geometry" />
        </mxCell>
        <mxCell id="yg-rSWofjeU7CixwsQnB-21" value="APIG" style="ellipse;whiteSpace=wrap;html=1;aspect=fixed;dashed=1;" vertex="1" parent="1">
          <mxGeometry x="590" y="105" width="80" height="80" as="geometry" />
        </mxCell>
        <mxCell id="yg-rSWofjeU7CixwsQnB-24" value="Internal Server" style="text;html=1;align=center;verticalAlign=middle;resizable=0;points=[];autosize=1;strokeColor=none;" vertex="1" parent="1">
          <mxGeometry x="200" y="540" width="90" height="20" as="geometry" />
        </mxCell>
        <mxCell id="yg-rSWofjeU7CixwsQnB-25" value="Huawei Cloud" style="text;html=1;align=center;verticalAlign=middle;resizable=0;points=[];autosize=1;strokeColor=none;" vertex="1" parent="1">
          <mxGeometry x="380" y="70" width="90" height="20" as="geometry" />
        </mxCell>
        <mxCell id="yg-rSWofjeU7CixwsQnB-27" value="Hunting Portal Server" style="text;html=1;align=center;verticalAlign=middle;resizable=0;points=[];autosize=1;strokeColor=none;" vertex="1" parent="1">
          <mxGeometry x="180" y="376" width="130" height="20" as="geometry" />
        </mxCell>
        <mxCell id="yg-rSWofjeU7CixwsQnB-30" value="FIR" style="ellipse;whiteSpace=wrap;html=1;aspect=fixed;dashed=1;" vertex="1" parent="1">
          <mxGeometry x="310" y="105" width="80" height="80" as="geometry" />
        </mxCell>
      </root>
    </mxGraphModel>
  </diagram>
</mxfile>
